<?xml version="1.0" standalone="no"?><!DOCTYPE svg PUBLIC "-//W3C//DTD SVG 1.1//EN" "http://www.w3.org/Graphics/SVG/1.1/DTD/svg11.dtd"><svg t="1608471514474" class="icon" viewBox="0 0 1024 1024" version="1.1" xmlns="http://www.w3.org/2000/svg" p-id="2763" xmlns:xlink="http://www.w3.org/1999/xlink" width="200" height="200"><defs><style type="text/css"></style></defs><path d="M512 170.666667H188.16l98.133333-97.706667A42.666667 42.666667 0 0 0 225.706667 12.373333l-170.666667 170.666667a42.666667 42.666667 0 0 0-8.96 14.08 42.666667 42.666667 0 0 0 0 32.426667 42.666667 42.666667 0 0 0 8.96 14.08l170.666667 170.666666a42.666667 42.666667 0 0 0 60.586666 0 42.666667 42.666667 0 0 0 0-60.586666L188.16 256H512a341.333333 341.333333 0 1 1-341.333333 341.333333 42.666667 42.666667 0 0 0-85.333334 0A426.666667 426.666667 0 1 0 512 170.666667z" p-id="2764"></path><path d="M426.666667 768a42.666667 42.666667 0 0 0 21.76-5.973333l213.333333-128a42.666667 42.666667 0 0 0 0-73.386667l-213.333333-128A42.666667 42.666667 0 0 0 384 469.333333v256a42.666667 42.666667 0 0 0 21.76 37.12A42.666667 42.666667 0 0 0 426.666667 768z m42.666666-223.146667L557.226667 597.333333 469.333333 649.813333z" p-id="2765"></path></svg>